<svg xmlns="http://www.w3.org/2000/svg" viewBox="0 0 226.6 233.8"><path d="M105.5 22.7V6.4h-5.9V4.3c.8 0 1.5-.1 2.2-.2.7-.1 1.4-.3 2-.7.6-.3 1.1-.8 1.5-1.3.4-.6.7-1.3.8-2.1h2.1v22.7h-2.7zM114.1 4.8c.3-1 .8-1.8 1.4-2.5.6-.7 1.4-1.3 2.4-1.7.9-.4 2-.6 3.2-.6 1 0 1.9.1 2.8.4.9.3 1.6.7 2.3 1.2.6.5 1.1 1.2 1.5 2 .4.8.6 1.7.6 2.8 0 1-.2 1.9-.5 2.7s-.7 1.5-1.2 2.1c-.5.6-1.1 1.2-1.8 1.6-.7.5-1.3 1-2 1.4-.7.4-1.4.8-2.1 1.3s-1.3.9-1.9 1.3c-.6.5-1.1 1-1.5 1.5s-.7 1.2-.8 1.9h11.6v2.4h-14.8c.1-1.3.3-2.5.7-3.4.4-.9.8-1.8 1.4-2.5s1.2-1.3 2-1.9c.7-.5 1.5-1 2.3-1.5 1-.6 1.8-1.1 2.5-1.6s1.3-1 1.8-1.5.8-1.1 1.1-1.7.4-1.3.4-2.1c0-.6-.1-1.2-.4-1.7-.2-.5-.5-.9-.9-1.3s-.9-.6-1.4-.8c-.5-.2-1.1-.3-1.7-.3-.8 0-1.5.2-2 .5-.6.3-1 .8-1.4 1.3-.4.5-.6 1.1-.8 1.8s-.2 1.3-.2 2H114c-.3-1-.2-2.1.1-3.1zM166.5 38.2V21.9h-5.9v-2.2c.8 0 1.5-.1 2.2-.2.7-.1 1.4-.3 2-.7.6-.3 1.1-.8 1.5-1.3.4-.6.7-1.3.8-2.1h2.1v22.7h-2.7zM198.9 59.2c.3-1 .8-1.8 1.4-2.5.6-.7 1.4-1.3 2.4-1.7.9-.4 2-.6 3.2-.6 1 0 1.9.1 2.8.4.9.3 1.6.7 2.3 1.2.6.5 1.1 1.2 1.5 2 .4.8.6 1.7.6 2.8 0 1-.2 1.9-.5 2.7s-.7 1.5-1.2 2.1c-.5.6-1.1 1.2-1.8 1.6-.7.5-1.3 1-2 1.4-.7.4-1.4.8-2.1 1.3s-1.3.9-1.9 1.3c-.6.5-1.1 1-1.5 1.5s-.7 1.2-.8 1.9h11.6V77H198c.1-1.3.3-2.5.7-3.4.4-.9.8-1.8 1.4-2.5s1.2-1.3 2-1.9c.7-.5 1.5-1 2.3-1.5 1-.6 1.8-1.1 2.5-1.6s1.3-1 1.8-1.5.8-1.1 1.1-1.7.4-1.3.4-2.1c0-.6-.1-1.2-.4-1.7-.2-.5-.5-.9-.9-1.3s-.9-.6-1.4-.8c-.5-.2-1.1-.3-1.7-.3-.8 0-1.5.2-2 .5-.6.3-1 .8-1.4 1.3-.4.5-.6 1.1-.8 1.8s-.2 1.3-.2 2h-2.7c-.2-1.1-.1-2.1.2-3.1zM217.6 115.1H218.5c.6 0 1.1-.1 1.6-.2s1-.4 1.4-.7c.4-.3.7-.7.9-1.2.2-.5.4-1 .4-1.6 0-1.2-.4-2.1-1.2-2.7-.8-.6-1.7-.9-2.9-.9-.7 0-1.4.1-1.9.4-.5.3-1 .6-1.3 1.1-.4.4-.6 1-.8 1.6-.2.6-.3 1.2-.3 1.9h-2.7c0-1.1.2-2.1.5-3s.8-1.7 1.3-2.3c.6-.6 1.3-1.1 2.2-1.5.9-.4 1.9-.5 3-.5 1 0 1.9.1 2.7.4s1.6.6 2.2 1.1c.6.5 1.1 1.1 1.5 1.9s.5 1.7.5 2.7c0 1-.3 1.9-.9 2.7-.6.8-1.3 1.4-2.2 1.8v.1c1.4.3 2.4 1 3.1 2 .7 1 1 2.2 1 3.6 0 1.1-.2 2.1-.6 3-.4.9-1 1.6-1.7 2.2s-1.5 1-2.5 1.3-2 .4-3 .4c-1.2 0-2.2-.2-3.1-.5-.9-.3-1.7-.8-2.4-1.4-.7-.6-1.2-1.4-1.5-2.3-.4-.9-.5-2-.5-3.1h2.7c0 1.5.5 2.7 1.3 3.6.8.9 2 1.4 3.6 1.4.7 0 1.3-.1 1.9-.3.6-.2 1.1-.5 1.6-.9s.8-.8 1.1-1.4.4-1.2.4-1.8c0-.7-.1-1.3-.4-1.9s-.6-1-1-1.4-.9-.7-1.5-.8-1.2-.3-1.9-.3c-.6 0-1.1 0-1.6.1V115c-.1.1 0 .1.1.1zM214.2 173.8v2.4h-3.1v5.3h-2.6v-5.3h-10v-2.6l10.3-14.8h2.2v15h3.2zm-5.6-11.1l-7.6 11.1h7.6v-11.1zM163.7 199.4l-1.2 6.5.1.1c.5-.6 1.1-1 1.9-1.2.8-.3 1.6-.4 2.3-.4 1 0 2 .2 2.8.5.9.3 1.7.8 2.3 1.5.7.7 1.2 1.5 1.6 2.4s.6 2.1.6 3.4c0 1-.2 1.9-.5 2.8-.3.9-.8 1.7-1.5 2.4s-1.5 1.3-2.5 1.7-2.1.6-3.5.6c-1 0-1.9-.1-2.8-.4s-1.6-.7-2.3-1.2-1.2-1.2-1.6-2c-.4-.8-.6-1.7-.6-2.8h2.7c0 .6.2 1.1.4 1.6s.6.9 1 1.3.9.7 1.5.9c.6.2 1.2.3 1.9.3.6 0 1.3-.1 1.8-.3.6-.2 1.1-.6 1.5-1 .4-.4.8-1 1-1.7.3-.7.4-1.5.4-2.4 0-.7-.1-1.4-.4-2.1s-.6-1.2-1-1.6-1-.8-1.6-1.1-1.3-.4-2.1-.4c-.9 0-1.7.2-2.4.6-.7.4-1.3.9-1.8 1.6l-2.3-.1 2.1-11.8h11.2v2.4h-9zM116.4 214.1c-.7-.6-1.5-.9-2.6-.9-1.2 0-2.1.3-2.8.8s-1.3 1.3-1.6 2.1-.7 1.8-.8 2.8c-.1 1-.2 1.9-.3 2.8l.1.1c.6-1 1.4-1.8 2.4-2.3.9-.5 2-.7 3.3-.7 1.1 0 2.1.2 2.9.6.9.4 1.6.9 2.2 1.6s1 1.4 1.4 2.3c.3.9.5 1.9.5 2.9 0 .8-.1 1.7-.4 2.6-.3.9-.7 1.7-1.3 2.4-.6.7-1.4 1.3-2.3 1.8-1 .5-2.2.7-3.6.7-1.7 0-3-.3-4.1-1s-1.8-1.6-2.4-2.6c-.6-1.1-.9-2.2-1.1-3.5-.2-1.3-.3-2.5-.3-3.7 0-1.6.1-3.1.4-4.5.3-1.5.7-2.8 1.4-3.9.6-1.1 1.5-2 2.6-2.7 1.1-.7 2.4-1 4-1 1.9 0 3.4.5 4.5 1.5s1.7 2.4 1.9 4.3h-2.7c-.2-1.1-.6-1.9-1.3-2.5zm-4.9 7.5c-.6.3-1.1.6-1.5 1.1-.4.5-.7 1-.9 1.6-.2.6-.3 1.3-.3 2s.1 1.4.3 2c.2.6.5 1.2.9 1.6.4.4.9.8 1.5 1.1.6.3 1.3.4 2 .4s1.4-.1 2-.4c.6-.3 1-.6 1.4-1.1.4-.5.7-1 .9-1.6s.3-1.2.3-1.9-.1-1.4-.3-2c-.2-.6-.5-1.2-.8-1.6-.4-.5-.9-.8-1.4-1.1s-1.2-.4-2-.4c-.9-.1-1.5.1-2.1.3zM64.9 203.4c-1 1.6-1.9 3.2-2.7 5-.8 1.8-1.4 3.6-1.9 5.5s-.8 3.7-.9 5.5h-3c.1-1.9.4-3.8.9-5.6.5-1.8 1.1-3.6 1.9-5.2s1.7-3.3 2.7-4.8c1-1.5 2.1-2.9 3.3-4.1H53.5V197h14.7v2.3c-1.2 1.2-2.3 2.5-3.3 4.1zM15.2 162.1c.4-.7.9-1.3 1.5-1.8s1.3-.9 2.1-1.1c.8-.3 1.6-.4 2.5-.4 1.2 0 2.3.2 3.2.5.9.3 1.6.8 2.1 1.3s.9 1.2 1.2 1.9c.3.7.4 1.4.4 2.1 0 1-.3 2-.8 2.8s-1.3 1.5-2.3 1.9c1.4.4 2.4 1.1 3 2.1s1 2.2 1 3.6c0 1.1-.2 2.1-.6 2.9-.4.9-.9 1.6-1.6 2.2s-1.5 1-2.4 1.3-1.9.4-2.9.4c-1.1 0-2.1-.1-3-.4-.9-.3-1.8-.7-2.4-1.3s-1.2-1.3-1.6-2.2c-.4-.9-.6-1.9-.6-3 0-1.3.3-2.5 1-3.5s1.7-1.7 2.9-2.2c-1-.4-1.7-1-2.3-1.9-.6-.9-.9-1.8-.9-2.8-.1-.9.1-1.7.5-2.4zm2.9 16.2c.9.8 2.1 1.2 3.5 1.2.7 0 1.3-.1 1.9-.3.6-.2 1.1-.5 1.5-.9s.7-.9 1-1.4.3-1.1.3-1.8c0-.6-.1-1.2-.4-1.7s-.6-1-1-1.4-.9-.7-1.5-.9c-.6-.2-1.2-.3-1.8-.3-.7 0-1.3.1-1.9.3-.6.2-1.1.5-1.5.9-.4.4-.8.8-1 1.4-.2.5-.4 1.1-.4 1.8-.1 1.2.3 2.3 1.3 3.1zm-.3-12c.2.5.5.8.9 1.1.4.3.8.5 1.3.7.5.1 1 .2 1.6.2 1.1 0 2-.3 2.7-1 .7-.6 1.1-1.5 1.1-2.7s-.4-2-1.1-2.6c-.7-.6-1.6-.9-2.7-.9-.5 0-1 .1-1.5.2s-.9.4-1.3.7c-.4.3-.6.7-.8 1.1-.2.4-.3.9-.3 1.5-.2.7-.1 1.2.1 1.7zM4.5 125.1c.8.6 1.7.9 2.8.9 1.7 0 2.9-.7 3.7-2.2s1.3-3.6 1.4-6.6l-.1-.1c-.5 1-1.2 1.7-2.2 2.3-.9.6-2 .8-3.1.8-1.2 0-2.2-.2-3.1-.6-.9-.4-1.6-.9-2.3-1.6-.6-.7-1.1-1.5-1.4-2.4-.3-.9-.5-2-.5-3.1s.2-2.1.5-3c.4-.9.9-1.7 1.5-2.3.7-.7 1.5-1.2 2.4-1.5.9-.4 1.9-.5 3-.5s2.1.2 3 .5c.9.3 1.8.9 2.5 1.7.7.8 1.3 1.9 1.7 3.3.4 1.4.6 3.2.6 5.3 0 3.9-.6 6.9-1.9 9-1.2 2.1-3.2 3.2-6 3.2-1.9 0-3.5-.5-4.7-1.4s-2-2.4-2.1-4.4h2.7c.4 1.2.9 2.1 1.6 2.7zm7.2-14.2c-.2-.6-.5-1.2-.9-1.6s-.9-.9-1.5-1.1c-.6-.3-1.2-.4-2-.4s-1.5.1-2.1.4-1 .7-1.4 1.2c-.4.5-.6 1.1-.8 1.7-.2.6-.2 1.3-.2 2 0 .6.1 1.2.3 1.8.2.6.5 1.1.9 1.5.4.4.9.8 1.4 1.1s1.1.4 1.8.4 1.3-.1 1.9-.4 1.1-.6 1.5-1.1c.4-.5.7-1 .9-1.6.2-.6.3-1.2.3-1.9.2-.7.1-1.4-.1-2zM13.6 76V59.8H7.8v-2.2c.8 0 1.5-.1 2.2-.2.7-.1 1.4-.3 2-.7.6-.3 1.1-.8 1.5-1.3.4-.6.7-1.3.8-2.1h2.1V76h-2.8zM21.9 62.3c0-.9.1-1.8.3-2.6.2-.9.4-1.7.7-2.4.3-.8.8-1.4 1.3-2 .6-.6 1.3-1 2.1-1.4s1.9-.5 3-.5c1.2 0 2.2.2 3 .5s1.5.8 2.1 1.4c.6.6 1 1.2 1.3 2 .3.8.6 1.6.7 2.4.2.9.3 1.7.3 2.6s.1 1.8.1 2.6 0 1.7-.1 2.6-.1 1.8-.3 2.6c-.2.9-.4 1.7-.7 2.4s-.8 1.4-1.3 2c-.6.6-1.2 1-2.1 1.4s-1.8.5-3 .5-2.2-.2-3-.5-1.5-.8-2.1-1.4c-.6-.6-1-1.2-1.3-2s-.6-1.6-.7-2.4c-.2-.9-.3-1.7-.3-2.6 0-.9-.1-1.8-.1-2.6.1-.8.1-1.7.1-2.6zm2.9 5.4c.1 1.1.2 2 .5 3 .3.9.8 1.7 1.4 2.4s1.5 1 2.7 1c1.2 0 2-.3 2.7-1s1.1-1.4 1.4-2.4c.3-.9.5-1.9.5-3 .1-1.1.1-2 .1-2.9V63c0-.7-.1-1.3-.2-2s-.2-1.3-.4-2c-.2-.6-.4-1.2-.8-1.7s-.8-.9-1.3-1.2-1.2-.4-2-.4-1.4.1-2 .4c-.5.3-1 .7-1.3 1.2-.4.5-.6 1-.8 1.7-.2.6-.3 1.3-.4 2-.1.7-.1 1.3-.2 2v1.8c.1.9.1 1.9.1 2.9z"/><g><path d="M53.5 38.2V21.9h-5.9v-2.2c.8 0 1.5-.1 2.2-.2.7-.1 1.4-.3 2-.7.6-.3 1.1-.8 1.5-1.3.4-.6.7-1.3.8-2.1h2.1v22.7h-2.7zM69.1 38.2V21.9h-5.9v-2.2c.8 0 1.5-.1 2.2-.2.7-.1 1.4-.3 2-.7.6-.3 1.1-.8 1.5-1.3.4-.6.7-1.3.8-2.1h2.1v22.7h-2.7z"/></g><script xmlns="">(function (AESD) {
  var core = {
    "log": false,
    "whitelist": function (status) {
      window.postMessage({
        "app": "audio-equalizer",
        "action": "page-whitelist",
        "value": {
          "status": status,
          "action": "page-whitelist"
        }
      }, '*');
    },
    "hostname": function (url) {
      if ("blob:" === url.substring(0, 5)) {
        url = url.replace("blob:", '');
        url = unescape(url);
      }
      /*  */
      var match = url.match(/:\/\/(www[0-9]?\.)?(.[^/:]+)/i);
      var flag = (match !== null) &amp;&amp; (match.length &gt; 2) &amp;&amp; (typeof match[2] === "string") &amp;&amp; (match[2].length &gt; 0);
      return flag ? match[2] : null;
    },
    "equalizer": {
      "targets": [],
      "filters": [],
      "storage": {},
      "audioContext": null,
      "gain": function () {
        var filter = core.equalizer.audioContext.createGain();
        filter.channelCountMode = "explicit";
        filter.gain.value = 1;
        return filter;
      },
      "biquad": function (e) {
        var filter = core.equalizer.audioContext.createBiquadFilter();
        filter.type = e.type || core.equalizer.storage.FT.LOWPASS;
        filter.frequency.value = e.f || 0;
        filter.gain.value = e.gain || 0;
        filter.Q.value = 1;
        return filter;
      },
      "set": function (o) {
        if (o) {
          if (o.eq &amp;&amp; o.config) {
            if (core.equalizer.filters.length &gt; 0) {
              if (core.equalizer.filters[0]) {
                core.equalizer.filters[0].channelCount = o.config.mono ? 1 : (core.equalizer.filters[0]._defaultChannelCount ? core.equalizer.filters[0]._defaultChannelCount : 2);
                core.equalizer.filters.forEach(function (f, i) {f.gain.value = o.eq[i].gain});
              }
            }
          }
        }
      },
      "load": function () {
        if (core.log) console.error(" &gt;&gt; Searching for video/audio elements...");
        core.equalizer.filters = [];
        delete core.equalizer.audioContext;
        /*  */
        core.equalizer.audioContext = new AudioContext();
        for (var i = 0; i &lt; core.equalizer.storage.eq.length; i++) {
          var node = core.equalizer.storage.eq[i];
          var filter = node.f ? core.equalizer.biquad(node) : core.equalizer.gain();
          if (filter) core.equalizer.filters.push(filter);
        }
        /*  */
        if (core.log) console.error(" &gt;&gt; Equalizer is loaded!");
        core.equalizer.attach(2);
      },
      "attach": function (w) {		
        if (!core.equalizer.audioContext) core.equalizer.load();
        else {
          core.equalizer.targets.forEach(function (t, k) {
            if (t.getAttribute("equalizer-state") !== "attached") {
              var src = (t.src ? t.src : t.currentSrc);
              var crossorigin = t.getAttribute("crossorigin");
              if (src) {
                t.setAttribute("equalizer-state", "attached");
                if (core.log) console.error(" &gt;&gt; Equalizer is attached, loc", w, t.className);
                if (!crossorigin &amp;&amp; document.location.hostname !== core.hostname(src) &amp;&amp; src.substring(0, 5) !== "blob:") {
                  t.setAttribute('crossorigin', (crossorigin ? crossorigin : "anonymous"));
                  if (t.src) t.src = t.src + '';
                  else if (t.currentSrc) t.load();
                }
                /*  */
                var source = core.equalizer.audioContext.createMediaElementSource(t);
                core.equalizer.filters[0]._defaultChannelCount = (source.channelCount) ? source.channelCount : 2;
                source.connect(core.equalizer.filters[0]);
                /*  */
                for (var i = 0; i &lt; core.equalizer.filters.length; i++) {
                  var next = core.equalizer.filters[i + 1];
                  var current = core.equalizer.filters[i];
                  if (next) current.connect(next);
                }
                /*  */
                var last = core.equalizer.filters.length - 1;
                core.equalizer.filters[last].connect(core.equalizer.audioContext.destination);
              }
            }
          });
        }
      }
    }
  };
  /*  */
  core.equalizer.storage = AESD;
  /*  */
  window.addEventListener("message", function (e) {
    if (e.data.app === "audio-equalizer") {
      if (e.data.action === "app-set") core.equalizer.set(e.data.value);
      if (e.data.action === "page-whitelist-enable") core.whitelist(e.data.value);
      if (e.data.action === "page-whitelist-disable") core.whitelist(e.data.value);
    }
  }, false);
  /*  */
  window.addEventListener("play", function (e) {
    core.equalizer.targets.push(e.target);
    core.equalizer.attach(0);
  }, true);
  /*  */
  if (Audio) {
    if (Audio.prototype) {
      if (Audio.prototype.play) {
        const PROTO = Audio.prototype.play;
        Audio.prototype.play = function () {
          core.equalizer.targets.push(this);
          core.equalizer.attach(1);
          /*  */
          return PROTO.apply(this, arguments);
        };
      }
    }
  }
})({"config":{"snap":false,"mono":false},"eq":[{"label":"master","gain":1},{"label":"64","f":64,"gain":0,"type":"peaking"},{"label":"32","f":32,"gain":0,"type":"lowshelf"},{"label":"125","f":125,"gain":0,"type":"peaking"},{"label":"250","f":250,"gain":0,"type":"peaking"},{"label":"500","f":500,"gain":0,"type":"peaking"},{"label":"1k","f":1000,"gain":0,"type":"peaking"},{"label":"2k","f":2000,"gain":0,"type":"peaking"},{"label":"4k","f":4000,"gain":0,"type":"peaking"},{"label":"8k","f":8000,"gain":0,"type":"peaking"},{"label":"16k","f":16000,"gain":0,"type":"highshelf"}],"presets":[{"name":"Club","default":true,"gains":[0,0,4.8,3.36,3.36,3.36,1.92,0,0,0]},{"name":"Live","default":true,"gains":[-2.88,0,2.4,3.36,3.36,3.36,2.4,1.44,1.44,1.44]},{"name":"Party","default":true,"gains":[4.32,4.32,0,0,0,0,0,0,4.32,4.32]},{"name":"Pop","default":true,"gains":[0.96,2.88,4.32,4.8,3.36,0,-1.44,-1.44,0.96,0.96]},{"name":"Soft","default":true,"gains":[2.88,0.96,0,-1.44,0,2.4,4.8,5.76,6.72,7.2]},{"name":"Ska","default":true,"gains":[-1.44,-2.88,-2.4,0,2.4,3.36,5.28,5.76,6.72,5.76]},{"name":"Reggae","default":true,"gains":[0,0,0,-3.36,0,3.84,3.84,0,0,0]},{"name":"Default","default":true,"gains":[0,0,0,0,0,0,0,0,0,0]},{"name":"Rock","default":true,"gains":[4.8,2.88,-3.36,-4.8,-1.92,2.4,5.28,6.72,6.72,6.72]},{"name":"Dance","default":true,"gains":[5.76,4.32,1.44,0,0,-3.36,-4.32,-4.32,0,0]},{"name":"Techno","default":true,"gains":[4.8,3.36,0,-3.36,-2.88,0,4.8,5.76,5.76,5.28]},{"name":"Headphones","default":true,"gains":[2.88,6.72,3.36,-1.92,-1.44,0.96,2.88,5.76,7.68,8.64]},{"name":"Soft rock","default":true,"gains":[2.4,2.4,1.44,0,-2.4,-3.36,-1.92,0,1.44,5.28]},{"name":"Classical","default":true,"gains":[0,0,0,0,0,0,-4.32,-4.32,-4.32,-5.76]},{"name":"Large Hall","default":true,"gains":[6.24,6.24,3.36,3.36,0,-2.88,-2.88,-2.88,0,0]},{"name":"Full Bass","default":true,"gains":[4.8,5.76,5.76,3.36,0.96,-2.4,-4.8,-6.24,-6.72,-6.72]},{"name":"Full Treble","default":true,"gains":[-5.76,-5.76,-5.76,-2.4,1.44,6.72,9.6,9.6,9.6,10.08]},{"name":"Laptop Speakers","default":true,"gains":[2.88,6.72,3.36,-1.92,-1.44,0.96,2.88,5.76,7.68,8.64]},{"name":"Full Bass &amp; Treble","default":true,"gains":[4.32,3.36,0,-4.32,-2.88,0.96,4.8,6.72,7.2,7.2]}],"selected":{"name":"Default","default":true,"gains":[0,0,0,0,0,0,0,0,0,0]},"whitelist":[]})</script></svg>